<svg width="24" height="24" viewBox="0 0 24 24" fill="none" xmlns="http://www.w3.org/2000/svg">
<path fill-rule="evenodd" clip-rule="evenodd" d="M16.2231 11.3988C16.1953 11.3618 16.1645 11.3264 16.1309 11.2927L15.6179 10.7798L9.54515 4.70705C9.15462 4.31653 8.52146 4.31653 8.13093 4.70705L7.70667 5.13132C7.31615 5.52184 7.31615 6.155 7.70667 6.54553L13.1611 12L7.70668 17.4544C7.31615 17.8449 7.31615 18.4781 7.70668 18.8686L8.13089 19.2928C8.52142 19.6833 9.15458 19.6833 9.5451 19.2928L14.9995 13.8384L14.9996 13.8384L16.1309 12.7071C16.4727 12.3653 16.5154 11.8378 16.259 11.4496C16.2476 11.4324 16.2357 11.4154 16.2231 11.3988Z" fill="#0ED9CD"/>
</svg>
