<svg width="70" height="70" viewBox="0 0 70 70" fill="none" xmlns="http://www.w3.org/2000/svg">
<path fill-rule="evenodd" clip-rule="evenodd" d="M33.5413 20.4167H10.208C7.79176 20.4167 5.83301 18.458 5.83301 16.0417C5.83301 13.6255 7.79176 11.6667 10.208 11.6667H33.5413C35.9576 11.6667 37.9163 13.6255 37.9163 16.0417C37.9163 18.458 35.9576 20.4167 33.5413 20.4167ZM39.3747 49.5834H59.7913C62.2076 49.5834 64.1663 51.5422 64.1663 53.9584C64.1663 56.3747 62.2076 58.3334 59.7913 58.3334H39.3747C36.9584 58.3334 34.9997 56.3747 34.9997 53.9584C34.9997 51.5422 36.9584 49.5834 39.3747 49.5834ZM59.7913 30.6251H10.208C7.79176 30.6251 5.83301 32.5838 5.83301 35.0001C5.83301 37.4163 7.79176 39.3751 10.208 39.3751H59.7913C62.2076 39.3751 64.1663 37.4163 64.1663 35.0001C64.1663 32.5838 62.2076 30.6251 59.7913 30.6251Z" fill="#27BEFF"/>
</svg>
