<svg width="100" height="100" viewBox="0 0 100 100" fill="none" xmlns="http://www.w3.org/2000/svg">
<path fill-rule="evenodd" clip-rule="evenodd" d="M41.6678 12.5H58.3345L60.0177 22.5989C63.2162 23.7685 66.1528 25.4822 68.7151 27.6279L78.3103 24.0332L86.6436 38.467L78.7365 44.9764C79.0198 46.6084 79.1675 48.2869 79.1675 50C79.1675 51.713 79.0199 53.3915 78.7365 55.0235L86.644 61.5332L78.3106 75.9669L68.7151 72.3721C66.1527 74.5178 63.2162 76.2315 60.0177 77.4011L58.3345 87.5H41.6678L39.9847 77.4014C36.786 76.2318 33.8493 74.5181 31.2868 72.3723L21.6917 75.967L13.3584 61.5332L21.2653 55.024C20.9819 53.3919 20.8342 51.7132 20.8342 50C20.8342 48.2868 20.9819 46.608 21.2653 44.9759L13.3587 38.4669L21.6921 24.0332L31.2868 27.6277C33.8493 25.4819 36.786 23.7682 39.9847 22.5986L41.6678 12.5ZM50.0009 62.5C56.9044 62.5 62.5009 56.9036 62.5009 50C62.5009 43.0964 56.9044 37.5 50.0009 37.5C43.0973 37.5 37.5009 43.0964 37.5009 50C37.5009 56.9036 43.0973 62.5 50.0009 62.5Z" fill="#3EBD80"/>
</svg>
