<svg width="24" height="24" viewBox="0 0 24 24" fill="none" xmlns="http://www.w3.org/2000/svg">
<path fill-rule="evenodd" clip-rule="evenodd" d="M7.61477 12.6012C7.64262 12.6382 7.67337 12.6736 7.70703 12.7073L8.21998 13.2202L14.2927 19.2929C14.6833 19.6835 15.3164 19.6835 15.707 19.2929L16.1312 18.8687C16.5217 18.4782 16.5217 17.845 16.1312 17.4545L10.6768 12L16.1312 6.54562C16.5217 6.15509 16.5217 5.52192 16.1312 5.1314L15.707 4.70719C15.3165 4.31667 14.6833 4.31668 14.2928 4.7072L8.83839 10.1616L8.83833 10.1616L7.70696 11.2929C7.36522 11.6347 7.32253 12.1622 7.57888 12.5504C7.59025 12.5676 7.60222 12.5846 7.61477 12.6012Z" fill="#0ED9CD"/>
</svg>
