<svg width="100" height="100" viewBox="0 0 100 100" fill="none" xmlns="http://www.w3.org/2000/svg">
<path fill-rule="evenodd" clip-rule="evenodd" d="M23.4835 23.4835C38.1282 8.83883 61.8718 8.83883 76.5165 23.4835C91.1612 38.1282 91.1612 61.8718 76.5165 76.5165C61.8718 91.1612 38.1282 91.1612 23.4835 76.5165C8.83883 61.8718 8.83883 38.1282 23.4835 23.4835ZM38.2149 67.6777C36.5877 69.3048 33.9495 69.3048 32.3223 67.6777C30.6951 66.0505 30.6951 63.4123 32.3223 61.7851L45.8333 48.2741V25C45.8333 22.6988 47.6988 20.8333 50 20.8333C52.3012 20.8333 54.1667 22.6988 54.1667 25V50C54.1667 50.5695 54.0524 51.1122 53.8456 51.6067C53.6502 52.075 53.3654 52.5149 52.9915 52.9004C52.9749 52.9174 52.9582 52.9344 52.9414 52.9511L38.2149 67.6777Z" fill="#FFAD80"/>
</svg>
