<svg width="24" height="24" viewBox="0 0 24 24" fill="none" xmlns="http://www.w3.org/2000/svg">
<path fill-rule="evenodd" clip-rule="evenodd" d="M7.61501 12.6012C7.64287 12.6381 7.67362 12.6735 7.70727 12.7072L8.22022 13.2201L14.293 19.2929C14.6835 19.6834 15.3167 19.6834 15.7072 19.2929L16.1315 18.8686C16.522 18.4781 16.522 17.8449 16.1315 17.4544L10.677 12L16.1315 6.54555C16.522 6.15503 16.522 5.52186 16.1315 5.13134L15.7072 4.70713C15.3167 4.31661 14.6836 4.31662 14.293 4.70714L8.83863 10.1616L8.83857 10.1615L7.7072 11.2929C7.36546 11.6346 7.32277 12.1622 7.57912 12.5503C7.5905 12.5676 7.60246 12.5845 7.61501 12.6012Z" fill="#4F4F4F"/>
</svg>
