<svg width="100" height="100" viewBox="0 0 100 100" fill="none" xmlns="http://www.w3.org/2000/svg">
<path fill-rule="evenodd" clip-rule="evenodd" d="M37.5003 8.33325H29.167V16.6666H25.0003C20.398 16.6666 16.667 20.3975 16.667 24.9999V74.9999C16.667 79.6023 20.398 83.3332 25.0003 83.3332H66.667H70.8336H75.0003C79.6027 83.3332 83.3336 79.6023 83.3336 74.9999V24.9999C83.3336 20.3975 79.6027 16.6666 75.0003 16.6666H70.8336V8.33325H62.5003V16.6666H37.5003V8.33325ZM75.0003 74.9999V33.3332H41.667H25.0003V74.9999H66.667H70.8336H75.0003ZM33.3337 41.6666V49.9999H41.667V41.6666H33.3337ZM45.8337 41.6666H54.167V49.9999H45.8337V41.6666ZM66.667 41.6666V49.9999H58.3337V41.6666H66.667ZM45.8337 58.3332H54.167V66.6666H45.8337V58.3332ZM58.3337 58.3332V66.6666H66.667V58.3332H58.3337ZM33.3337 58.3332H41.667V66.6666H33.3337V58.3332Z" fill="#0ED9CD"/>
</svg>
