<svg width="24" height="24" viewBox="0 0 24 24" fill="none" xmlns="http://www.w3.org/2000/svg">
<path fill-rule="evenodd" clip-rule="evenodd" d="M16.2236 11.3988C16.1958 11.3619 16.165 11.3265 16.1314 11.2928L15.6184 10.7799L9.54564 4.70711C9.15511 4.31659 8.52195 4.31659 8.13142 4.70711L7.70716 5.13138C7.31664 5.5219 7.31664 6.15507 7.70716 6.54559L13.1616 12L7.70717 17.4544C7.31664 17.845 7.31664 18.4781 7.70717 18.8687L8.13138 19.2929C8.52191 19.6834 9.15507 19.6834 9.54559 19.2929L15 13.8384L15.0001 13.8385L16.1314 12.7071C16.4732 12.3654 16.5159 11.8378 16.2595 11.4497C16.2481 11.4324 16.2362 11.4155 16.2236 11.3988Z" fill="#4F4F4F"/>
</svg>
